#!OML:ASF F:\VICON\USERDATA\INSTALL\rory3\rory3.ASF
:FULLY-SPECIFIED
:DEGREES
1
root 0.889378 17.8109 -14.5985 5.27558 -2.80921 -0.394744
lowerback 0.204708 -0.675236 -1.52348
upperback -4.02729 -0.837032 3.01141
thorax -4.20435 -0.304697 4.0058
lowerneck -14.833 -4.20683 -10.9648
upperneck 26.258 -4.56744 5.29801
head 11.3837 -2.53483 3.15299
rclavicle -4.67144e-015 -1.98785e-014
rhumerus -35.3286 -8.10537 -82.1626
rradius 28.2765
rwrist 12.4722
rhand -5.77941 8.38621
rfingers 7.12502
rthumb 20.0444 -20.5999
lclavicle -4.67144e-015 -1.98785e-014
lhumerus -33.1634 8.96073 89.8034
lradius 23.5231
lwrist -13.8266
lhand -13.1505 26.608
lfingers 7.12502
lthumb 12.9481 56.1863
rfemur -6.02975 6.74453 20.8001
rtibia 17.8929
rfoot -11.6942 -8.03303
rtoes 4.91562
lfemur -5.63336 -6.0402 -19.0664
ltibia 17.8178
lfoot -13.2463 8.67579
ltoes -2.28361
2
root 0.888118 17.8119 -14.6015 5.26445 -2.86287 -0.321212
lowerback 0.262033 -0.664423 -1.63493
upperback -4.04075 -0.825839 2.99833
thorax -4.25091 -0.294413 4.05615
lowerneck -14.8279 -4.19933 -10.91
upperneck 26.2577 -4.55401 5.234
head 11.3782 -2.53113 3.12182
rclavicle -1.07344e-014 2.38542e-015
rhumerus -35.3667 -7.98176 -82.2205
rradius 28.3638
rwrist 12.3526
rhand -5.83236 8.48801
rfingers 7.12502
rthumb 19.9935 -20.5034
lclavicle -1.07344e-014 2.38542e-015
lhumerus -33.1512 9.01093 89.7867
lradius 23.5204
lwrist -13.775
lhand -13.003 26.5885
lfingers 7.12502
lthumb 13.0903 56.1576
rfemur -6.0812 6.74751 20.7142
rtibia 17.9651
rfoot -11.7576 -7.97983
rtoes 4.95989
lfemur -5.61485 -6.02214 -19.152
ltibia 17.8026
lfoot -13.1658 8.72419
ltoes -2.21352
3
root 0.888513 17.8087 -14.6021 5.17648 -2.94569 -0.326343
lowerback 0.275288 -0.62247 -1.58001
upperback -3.9637 -0.771196 2.94586
thorax -4.18339 -0.272205 3.96708
lowerneck -14.8594 -4.20503 -10.8838
upperneck 26.2331 -4.58097 5.29139
head 11.3778 -2.53279 3.13417
rclavicle -1.05356e-014 -1.66979e-014
rhumerus -35.313 -8.09308 -82.2838
rradius 28.4028
rwrist 12.3313
rhand -5.71328 8.25911
rfingers 7.12502
rthumb 20.108 -20.7203
lclavicle -1.05356e-014 -1.66979e-014
lhumerus -33.0186 8.9223 89.7369
lradius 23.4229
lwrist -13.798
lhand -13.0732 26.301
lfingers 7.12502
lthumb 13.0227 55.8745
rfemur -5.97489 6.75892 20.722
rtibia 17.9123
rfoot -11.7133 -7.93473
rtoes 4.68999
lfemur -5.56972 -5.9805 -19.1688
ltibia 17.9277
lfoot -13.2576 8.76363
ltoes -2.03449
4
root 0.889899 17.802 -14.6005 5.14818 -2.91432 -0.358479
lowerback 0.263386 -0.607285 -1.49242
upperback -3.92211 -0.750158 2.91617
thorax -4.13592 -0.266616 3.88479
lowerneck -14.9282 -4.22394 -10.8617
upperneck 26.2222 -4.61652 5.33082
head 11.3908 -2.54056 3.13904
rclavicle 1.16041e-014 -2.70347e-014
rhumerus -35.2594 -8.22555 -82.2978
rradius 28.3925
rwrist 12.3222
rhand -5.6761 8.05401
rfingers 7.12502
rthumb 20.1437 -20.9216
lclavicle 1.16041e-014 -2.70347e-014
lhumerus -32.9376 8.8392 89.7319
lradius 23.3762
lwrist -13.7914
lhand -13.1873 26.1581
lfingers 7.12502
lthumb 12.9127 55.7386
rfemur -5.91542 6.66271 20.7718
rtibia 17.9148
rfoot -11.686 -7.96848
rtoes 3.6282
lfemur -5.62823 -5.96472 -19.1419
ltibia 17.9898
lfoot -13.196 8.78062
ltoes -2.65414
5
root 0.889229 17.7948 -14.5988 5.16677 -2.85784 -0.420663
lowerback 0.295109 -0.610327 -1.42895
upperback -3.95691 -0.751684 2.92625
thorax -4.19061 -0.268124 3.8606
lowerneck -14.9864 -4.24744 -10.8745
upperneck 26.2669 -4.65358 5.37326
head 11.4244 -2.55338 3.1517
rclavicle 6.21202e-016 -1.11319e-014
rhumerus -35.2913 -8.28133 -82.2773
rradius 28.3248
rwrist 12.4182
rhand -5.74847 8.23691
rfingers 7.12502
rthumb 20.0741 -20.7461
lclavicle 6.21202e-016 -1.11319e-014
lhumerus -33.0254 8.82722 89.7418
lradius 23.4181
lwrist -13.8287
lhand -13.3189 25.998
lfingers 7.12502
lthumb 12.7858 55.5865
rfemur -5.90053 6.66779 20.8629
rtibia 17.8926
rfoot -11.6175 -8.07573
rtoes 2.85825
lfemur -5.78106 -6.00249 -19.0657
ltibia 18.0648
lfoot -13.1289 8.87526
ltoes -3.56536
6
root 0.887141 17.7908 -14.6002 5.09524 -2.76039 -0.409321
lowerback 0.325813 -0.654486 -1.4665
upperback -3.87657 -0.812516 2.94035
thorax -4.11896 -0.298987 3.89792
lowerneck -15.1185 -4.27229 -10.9406
upperneck 26.2621 -4.67235 5.43471
head 11.4544 -2.55885 3.18159
rclavicle 4.79568e-015 0
rhumerus -35.1813 -8.33446 -82.2704
rradius 28.2984
rwrist 12.5108
rhand -5.67804 8.44632
rfingers 7.12502
rthumb 20.1418 -20.5295
lclavicle 4.79568e-015 0
lhumerus -32.9393 8.88169 89.7603
lradius 23.429
lwrist -13.8496
lhand -13.3613 26.0006
lfingers 7.12502
lthumb 12.7449 55.5917
rfemur -5.7844 6.62341 20.8807
rtibia 17.86
rfoot -11.6387 -8.11779
rtoes 2.65296
lfemur -5.78238 -6.01908 -19.0628
ltibia 18.1151
lfoot -13.173 8.81375
ltoes -3.85485
7
root 0.884942 17.7931 -14.6038 5.0911 -2.73533 -0.335263
lowerback 0.315094 -0.638235 -1.54673
upperback -3.77581 -0.79582 2.89472
thorax -4.00873 -0.291714 3.89315
lowerneck -15.3994 -4.33936 -10.8942
upperneck 26.2937 -4.74739 5.43181
head 11.5286 -2.58444 3.15886
rclavicle 5.06901e-015 7.95139e-015
rhumerus -34.99 -8.4988 -82.2916
rradius 28.3089
rwrist 12.5037
rhand -5.51721 8.36877
rfingers 7.12502
rthumb 20.2964 -20.5907
lclavicle 5.06901e-015 7.95139e-015
lhumerus -32.7445 8.80913 89.7706
lradius 23.4499
lwrist -13.8684
lhand -13.2282 26.6035
lfingers 7.12502
lthumb 12.8732 56.1865
rfemur -5.77208 6.62908 20.8052
rtibia 17.8307
rfoot -11.6476 -8.13006
rtoes 2.73476
lfemur -5.75514 -5.9368 -19.1307
ltibia 18.1459
lfoot -13.3056 8.66873
ltoes -3.51254
8
root 0.885269 17.7997 -14.6036 5.15935 -2.78994 -0.342789
lowerback 0.277539 -0.583232 -1.51745
upperback -3.80911 -0.722181 2.85602
thorax -4.02852 -0.25592 3.83352
lowerneck -15.4112 -4.36772 -10.7788
upperneck 26.3019 -4.79893 5.36097
head 11.5336 -2.60469 3.10492
rclavicle -4.64659e-015 -2.38542e-015
rhumerus -35.0257 -8.60812 -82.3044
rradius 28.3436
rwrist 12.5107
rhand -5.56418 8.51421
rfingers 7.12502
rthumb 20.2513 -20.4501
lclavicle -4.64659e-015 -2.38542e-015
lhumerus -32.7598 8.69462 89.771
lradius 23.4914
lwrist -13.8386
lhand -12.8484 27.5758
lfingers 7.12502
lthumb 13.2393 57.1354
rfemur -5.85221 6.61782 20.7987
rtibia 17.8012
rfoot -11.5662 -8.0718
rtoes 2.17648
lfemur -5.76871 -5.91116 -19.117
ltibia 18.1606
lfoot -13.41 8.6057
ltoes -3.22735
9
root 0.885076 17.8009 -14.5993 5.23581 -2.90584 -0.393508
lowerback 0.174063 -0.568123 -1.50089
upperback -3.9 -0.698754 2.89796
thorax -4.06625 -0.242354 3.86692
lowerneck -15.1519 -4.31224 -10.8229
upperneck 26.243 -4.73186 5.34584
head 11.4537 -2.58381 3.11872
rclavicle 5.59082e-015 -2.06736e-014
rhumerus -35.2377 -8.46976 -82.2947
rradius 28.4518
rwrist 12.4723
rhand -5.59113 8.66971
rfingers 7.12502
rthumb 20.2254 -20.2973
lclavicle 5.59082e-015 -2.06736e-014
lhumerus -32.9416 8.76526 89.7729
lradius 23.5418
lwrist -13.8584
lhand -12.8535 27.8104
lfingers 7.12502
lthumb 13.2344 57.3703
rfemur -5.90817 6.65951 20.8306
rtibia 17.7732
rfoot -11.5509 -8.00484
rtoes 2.33108
lfemur -5.7884 -5.93356 -19.0652
ltibia 18.1595
lfoot -13.3607 8.68568
ltoes -2.61948
10
root 0.885706 17.8033 -14.5985 5.28641 -3.00903 -0.400356
lowerback 0.0690107 -0.563917 -1.48846
upperback -3.91702 -0.692267 2.90621
thorax -4.02495 -0.239881 3.86687
lowerneck -15.015 -4.27963 -10.8456
upperneck 26.1915 -4.70089 5.37073
head 11.4049 -2.57039 3.13717
rclavicle 7.20594e-015 -2.62396e-014
rhumerus -35.2537 -8.3756 -82.3459
rradius 28.4419
rwrist 12.4957
rhand -5.53749 8.25348
rfingers 7.12502
rthumb 20.2769 -20.7081
lclavicle 7.20594e-015 -2.62396e-014
lhumerus -33.0282 8.85113 89.744
lradius 23.599
lwrist -13.8438
lhand -13.055 27.2609
lfingers 7.12502
lthumb 13.0402 56.8333
rfemur -5.95026 6.75036 20.8031
rtibia 17.7218
rfoot -11.5233 -7.91495
rtoes 3.11578
lfemur -5.82059 -5.95625 -19.071
ltibia 18.1809
lfoot -13.2932 8.8031
ltoes -1.95149
11
root 0.88426 17.8061 -14.5983 5.27398 -3.05549 -0.396435
lowerback 0.0224663 -0.544244 -1.50945
upperback -3.86532 -0.667148 2.90613
thorax -3.94646 -0.228477 3.87628
lowerneck -15.0492 -4.31167 -10.8389
upperneck 26.1443 -4.74164 5.36637
head 11.3974 -2.58729 3.1271
rclavicle 7.62836e-015 9.54166e-015
rhumerus -35.114 -8.4406 -82.3424
rradius 28.3048
rwrist 12.5729
rhand -5.45454 8.01626
rfingers 7.12502
rthumb 20.3566 -20.9368
lclavicle 7.62836e-015 9.54166e-015
lhumerus -32.9818 8.85705 89.7483
lradius 23.6127
lwrist -13.9102
lhand -12.9949 27.4353
lfingers 7.12502
lthumb 13.0981 57.004
rfemur -5.95824 6.73714 20.7969
rtibia 17.7127
rfoot -11.5694 -7.85538
rtoes 3.49978
lfemur -5.80146 -5.93621 -19.0786
ltibia 18.1981
lfoot -13.2444 8.80446
ltoes -1.72985
12
root 0.884422 17.8021 -14.5985 5.20841 -3.03319 -0.4717
lowerback 0.072299 -0.546922 -1.45243
upperback -3.83445 -0.668659 2.94488
thorax -3.94259 -0.230855 3.88475
lowerneck -15.0561 -4.31755 -10.9389
upperneck 26.1323 -4.74309 5.44332
head 11.3994 -2.5882 3.17227
rclavicle -2.36057e-015 2.22639e-014
rhumerus -35.0948 -8.41513 -82.3245
rradius 28.2922
rwrist 12.5057
rhand -5.37958 8.14022
rfingers 7.12502
rthumb 20.4287 -20.8052
lclavicle -2.36057e-015 2.22639e-014
lhumerus -33.0056 8.96385 89.7504
lradius 23.6714
lwrist -13.9913
lhand -12.8644 28.1642
lfingers 7.12502
lthumb 13.2239 57.7248
rfemur -5.87184 6.76482 20.8983
rtibia 17.7145
rfoot -11.5692 -7.93833
rtoes 3.24291
lfemur -5.77304 -5.94323 -18.9999
ltibia 18.2099
lfoot -13.2025 8.83878
ltoes -2.18419
13
root 0.883949 17.7981 -14.601 5.19298 -2.99217 -0.4587
lowerback 0.166928 -0.560062 -1.5012
upperback -3.87589 -0.686067 2.96712
thorax -4.03758 -0.235457 3.93831
lowerneck -15.0336 -4.31908 -11.023
upperneck 26.1484 -4.73233 5.46762
head 11.4035 -2.5894 3.19765
rclavicle 1.10077e-014 -3.18055e-014
rhumerus -35.1435 -8.43689 -82.2634
rradius 28.27
rwrist 12.5564
rhand -5.42638 8.31079
rfingers 7.12502
rthumb 20.3837 -20.6394
lclavicle 1.10077e-014 -3.18055e-014
lhumerus -33.0567 9.19701 89.7012
lradius 23.6528
lwrist -14.0983
lhand -12.9186 28.2246
lfingers 7.12502
lthumb 13.1717 57.7885
rfemur -5.85835 6.80179 20.8977
rtibia 17.7279
rfoot -11.5573 -8.00861
rtoes 2.80067
lfemur -5.81698 -5.91241 -19.0071
ltibia 18.2304
lfoot -13.1842 8.83402
ltoes -2.44342
